<svg xmlns="http://www.w3.org/2000/svg" xmlns:xlink="http://www.w3.org/1999/xlink" width="182" height="49" viewBox="0 0 182 49">
    <defs>
        <path id="a" d="M0 76.968h181.748V0H0z"/>
    </defs>
    <g fill="none" fill-rule="evenodd">
        <g transform="translate(0 -14)">
            <mask id="b" fill="#fff">
                <use xlink:href="#a"/>
            </mask>
            <path fill="#4A5357" d="M64.61 47.978c.532 0 .952-.387 1.262-1.162.31-.774.465-1.848.465-3.22 0-.973-.062-1.703-.183-2.19-.122-.487-.298-.808-.531-.963-.232-.155-.548-.233-.946-.233h-.764v7.768h.697zm-.033-10.887c.421 0 .747-.288.98-.864.232-.575.349-1.338.349-2.29 0-1.084-.106-1.82-.316-2.207-.21-.387-.503-.581-.88-.581h-.797v5.942h.664zm-4.414-8.497c0-.222.066-.388.199-.5.133-.11.375-.165.73-.165h3.253c1.66 0 3.01.376 4.05 1.129 1.04.752 1.56 2.113 1.56 4.083 0 1.571-.304 2.821-.913 3.75-.609.93-1.323 1.45-2.14 1.56 2.544.266 3.817 1.87 3.817 4.813 0 2.368-.51 4.277-1.528 5.726-1.018 1.45-2.577 2.174-4.68 2.174h-4.348v-22.57zM72.179 36.194c0-.553.1-.935.298-1.145.2-.21.531-.343.997-.398.464-.056 1.282-.083 2.456-.083v15.933c0 .243-.056.404-.166.48-.111.078-.476.128-1.096.15-.62.022-1.449.033-2.49.033v-14.97zm.448-3.751c-.298-.398-.448-1.083-.448-2.058 0-.796.171-1.426.514-1.891.343-.466.847-.698 1.51-.698.665 0 1.118.178 1.362.53.243.355.365.987.365 1.893 0 .886-.166 1.577-.498 2.075-.332.498-.819.747-1.46.747-.598 0-1.046-.199-1.345-.598zM83.498 40.41c.353-.532.53-1.184.53-1.959 0-.619-.22-.929-.663-.929-.532 0-1.03.321-1.494.962v3.353c.73-.42 1.273-.896 1.627-1.428zm-5.345-12.016c0-.553.1-.935.299-1.145.199-.21.525-.343.98-.398.453-.056 1.265-.084 2.439-.084v8.431c1.128-.641 2.312-.962 3.552-.962 1.017 0 1.73.27 2.14.813.41.543.615 1.211.615 2.009 0 1.106-.199 2.085-.598 2.937-.398.852-.852 1.543-1.361 2.074 1.571 1.151 2.379 3.242 2.424 6.274 0 .73-.034 1.483-.1 2.257-.022.2-.1.332-.232.398-.133.067-.543.111-1.229.133-.686.022-1.605.033-2.755.033.11-1.26.167-2.39.167-3.386 0-2.654-.488-3.983-1.461-3.983-.266 0-.526.078-.78.232-.255.156-.382.245-.382.266v6.208c0 .243-.056.404-.166.48-.111.079-.465.128-1.062.15-.597.022-1.427.033-2.49.033v-22.77zM93.638 38.518c-.232.73-.371 1.87-.415 3.419 1.239 0 2.07-.1 2.49-.299.11-.332.166-.908.166-1.726 0-1.018-.078-1.687-.232-2.009-.155-.32-.454-.48-.897-.48-.509 0-.88.365-1.112 1.095m5.294 8.464c.2.664.3 1.482.3 2.457 0 .642-.449 1.144-1.345 1.51-.897.365-2.02.547-3.37.547-1.66 0-2.931-.57-3.817-1.71-.885-1.139-1.327-3.18-1.327-6.123 0-2.523.26-4.481.78-5.875.52-1.395 1.2-2.335 2.041-2.822.841-.486 1.848-.73 3.021-.73 2.832 0 4.249 1.804 4.249 5.41 0 1.926-.155 3.497-.465 4.713-1.262.266-3.187.421-5.776.465.067 1.13.254 1.926.564 2.39.31.465.852.697 1.627.697 1.062 0 2.235-.31 3.518-.929M105.537 38.783h.697c.576 0 1.007-.298 1.295-.896.287-.597.431-1.704.431-3.32 0-1.194-.116-2.068-.349-2.622-.232-.552-.613-.83-1.145-.83h-.929v7.668zm6.158 5.975c.564 1.55.88 3.441.946 5.676 0 .244-.04.42-.117.531-.077.111-.249.189-.514.233-.265.044-.697.066-1.295.066-.597 0-1.317-.033-2.157-.1-.045-2.301-.277-4.177-.697-5.626-.42-1.448-.907-2.573-1.461-3.369a3.963 3.963 0 0 1-.597.033h-.266V50.5c0 .245-.061.404-.182.481-.122.078-.482.129-1.08.15-.596.023-1.405.033-2.422.033v-22.57c0-.112.044-.25.132-.416.09-.166.266-.25.531-.25h3.12c1.484 0 2.69.2 3.619.599.929.398 1.638 1.095 2.125 2.09.486.996.73 2.38.73 4.15 0 2.944-.775 5.024-2.324 6.24.707.952 1.344 2.203 1.909 3.75zM117.902 38.518c-.232.73-.371 1.87-.415 3.419 1.238 0 2.07-.1 2.49-.299.11-.332.165-.908.165-1.726 0-1.018-.078-1.687-.232-2.009-.155-.32-.454-.48-.897-.48-.508 0-.879.365-1.111 1.095m5.294 8.464c.2.664.3 1.482.3 2.457 0 .642-.45 1.144-1.345 1.51-.897.365-2.02.547-3.37.547-1.66 0-2.932-.57-3.817-1.71-.885-1.139-1.328-3.18-1.328-6.123 0-2.523.26-4.481.78-5.875.52-1.395 1.2-2.335 2.042-2.822.84-.486 1.848-.73 3.02-.73 2.832 0 4.25 1.804 4.25 5.41 0 1.926-.156 3.497-.466 4.713-1.261.266-3.186.421-5.775.465.066 1.13.254 1.926.564 2.39.31.465.852.697 1.627.697 1.061 0 2.234-.31 3.518-.929M130.913 47.762c.21-.32.386-1 .53-2.041.144-1.04.217-2.545.217-4.514 0-1.063-.05-1.865-.15-2.407-.1-.542-.248-.913-.447-1.112-.2-.2-.477-.299-.831-.299s-.697.133-1.029.399v9.824c.31.421.63.631.963.631.288 0 .536-.16.747-.48m-4.996 9.608c-.265-.22-.398-.653-.398-1.294V35.53c.642-.398 1.4-.713 2.273-.945a10.2 10.2 0 0 1 2.64-.35c1.747 0 3.075.488 3.982 1.461.908.974 1.362 2.734 1.362 5.278 0 2.81-.189 4.99-.564 6.539-.377 1.549-.88 2.601-1.511 3.153-.63.553-1.39.83-2.273.83-.974 0-1.716-.21-2.225-.63v6.54c-.53.198-1.161.298-1.891.298-.664 0-1.13-.111-1.395-.333M138.53 50.251c-.73-.83-1.095-2.085-1.095-3.767V35.232c0-.244.055-.404.166-.481.11-.078.482-.127 1.112-.15a78.1 78.1 0 0 1 2.54-.033v12.148c0 .576.076.99.232 1.245.154.255.464.382.93.382.531 0 .95-.144 1.26-.432v-12.68c0-.243.05-.403.15-.48.1-.078.454-.127 1.063-.15a73.552 73.552 0 0 1 2.472-.033v15.667c-.598.354-1.333.653-2.207.896-.874.243-1.776.365-2.706.365-1.88 0-3.186-.415-3.917-1.245M155.177 46.832c.343-.962.515-2.693.515-5.194 0-1.483-.106-2.54-.316-3.17-.21-.631-.536-.946-.98-.946-.441 0-.83.166-1.16.498v9.99c.22.178.475.266.763.266.443 0 .834-.48 1.178-1.444m-4.05 4.399c-.675-.177-1.2-.42-1.576-.73V28.427c0-.553.094-.94.282-1.162.188-.22.504-.359.946-.414.443-.056 1.262-.084 2.456-.084v8.431c.775-.641 1.727-.962 2.855-.962 1.327 0 2.284.51 2.871 1.527.586 1.017.88 2.755.88 5.212 0 2.92-.316 5.156-.946 6.704-.63 1.549-1.405 2.572-2.324 3.07-.918.498-1.963.747-3.137.747-.862 0-1.632-.089-2.306-.265M161.633 28.394c0-.553.1-.934.299-1.145.199-.21.526-.343.98-.399.452-.055 1.255-.083 2.406-.083V50.5c0 .245-.056.404-.166.481-.111.078-.465.129-1.062.15a69.4 69.4 0 0 1-2.457.033v-22.77zM167.541 36.194c0-.553.1-.935.299-1.145.199-.21.531-.343.996-.398.465-.056 1.283-.083 2.456-.083v15.933c0 .243-.055.404-.166.48-.11.078-.476.128-1.095.15-.62.022-1.45.033-2.49.033v-14.97zm.448-3.751c-.298-.398-.448-1.083-.448-2.058 0-.796.172-1.426.515-1.891.343-.466.847-.698 1.51-.698.664 0 1.117.178 1.361.53.243.355.365.987.365 1.893 0 .886-.166 1.577-.498 2.075-.332.498-.819.747-1.46.747-.597 0-1.046-.199-1.345-.598zM175.159 50.833c-.697-.443-1.217-1.256-1.56-2.44-.343-1.184-.515-2.904-.515-5.162 0-2.478.283-4.381.847-5.709.564-1.328 1.272-2.207 2.124-2.638.852-.433 1.831-.648 2.938-.648.818 0 1.482.149 1.991.449.509.298.764.712.764 1.244 0 .663-.111 1.317-.333 1.958a7.668 7.668 0 0 0-1.012-.298 4.863 4.863 0 0 0-1.078-.133c-.73 0-1.312.377-1.743 1.128-.43.752-.647 2.28-.647 4.58 0 1.328.066 2.352.199 3.071.132.72.36 1.234.68 1.543.32.31.78.465 1.378.465.353 0 .73-.044 1.128-.133.399-.088.73-.199.996-.332.2.797.299 1.44.299 1.926 0 .553-.337.99-1.012 1.31-.676.321-1.544.482-2.606.482-1.195 0-2.141-.221-2.838-.663" mask="url(#b)"/>
            <g mask="url(#b)">
                <path fill="#EE473E" d="M3.433 40c0 3.865 3.356 7 7.5 7 4.143 0 7.5-3.135 7.5-7s-3.357-7-7.5-7c-4.145 0-7.5 3.135-7.5 7m7.5-4.2c2.48 0 4.5 1.885 4.5 4.2 0 2.315-2.02 4.2-4.5 4.2-2.481 0-4.5-1.885-4.5-4.2 0-2.315 2.019-4.2 4.5-4.2M35.933 33c-4.145 0-7.5 3.135-7.5 7s3.356 7 7.5 7c4.143 0 7.5-3.135 7.5-7 0-3.866-3.357-7-7.5-7m4.5 7c0 2.317-2.02 4.2-4.5 4.2s-4.5-1.885-4.5-4.2c0-2.315 2.02-4.2 4.5-4.2s4.5 1.885 4.5 4.2"/>
                <path fill="#4A5357" d="M24.36 19.003a1 1 0 1 0 .146 1.995 1 1 0 0 0-.146-1.995"/>
                <path fill="#4A5357" d="M26.493 18.542c-.356.028-.658-.33-.693-.802-.036-.472.21-.872.565-.9.355-.027.657.331.692.803.036.472-.2.871-.564.9m-1.747 3.612a.08.08 0 0 1-.103.008c-.25-.177-1.312-1.247-1.384-2.241a1.28 1.28 0 0 1 1.148-1.373c.716-.067 1.354.498 1.388 1.224.045.98-.828 2.172-1.049 2.382m-2.47-3.288c-.355.027-.657-.331-.693-.803-.035-.471.21-.872.565-.9.355-.027.657.332.693.803.035.472-.21.872-.565.9m4.477 4.865c1.867-.876 2.75-1.96 2.636-3.267-.02-.412-.713-2.307-.843-2.947-.188-1.15-.413-1.834-.682-2.03.049-.158.077-.325.064-.5a1.054 1.054 0 0 0-1.135-.985c-.405.032-.722.293-.89.625a5.135 5.135 0 0 0-1.84-.177 5.15 5.15 0 0 0-1.79.457c-.216-.303-.569-.513-.974-.482a1.059 1.059 0 0 0-.975 1.147c.015.195.068.356.16.504-.215.254-.356.955-.392 2.092-.052.674-.448 2.592-.414 3.042.067.892.568 1.612 1.494 2.164-.415.599-.83 1.198-1.243 1.797-1.11 1.603-3.18 3.705-3.466 5.669-.172 1.18.397 2.25 1.402 2.838.681.4 1.516.644 2.305.918 1.413.491 2.827.978 4.24 1.468l-4.173 5.673c-.55.627.169 1.558.904 1.17l3.464-2.765c.86-.686 1.72-1.372 2.579-2.06.813-.649 2.027-1.274 2.374-2.31.596-1.779-1.833-2.825-2.871-3.791-1.53-1.425-1.63-3.006-.258-4.64.14-.168 4.547 1.36 5.816 1.815 1.645.592 3.276 1.417 3.936.64a1.062 1.062 0 0 0-.166-1.53l-9.262-4.535z"/>
                <path fill="#1B978C" d="M.433 48c3.995 8.834 13.01 15 23.5 15s19.505-6.166 23.5-15h-47z"/>
            </g>
        </g>
    </g>
</svg>
