<svg xmlns="http://www.w3.org/2000/svg" width="60" height="60" viewBox="0 0 60 60">
    <g fill="none" fill-rule="evenodd">
        <path d="M-6-6h72v72H-6z"/>
        <path fill="#1C9D6C" d="M29.97 0C13.41 0 0 13.44 0 30c0 16.56 13.41 30 29.97 30C46.56 60 60 46.56 60 30 60 13.44 46.56 0 29.97 0zM30 54C16.74 54 6 43.26 6 30S16.74 6 30 6s24 10.74 24 24-10.74 24-24 24zm10.5-27c2.49 0 4.5-2.01 4.5-4.5S42.99 18 40.5 18 36 20.01 36 22.5s2.01 4.5 4.5 4.5zm-21 0c2.49 0 4.5-2.01 4.5-4.5S21.99 18 19.5 18 15 20.01 15 22.5s2.01 4.5 4.5 4.5zM30 36c-6.99 0-12.93 4.38-15.33 10.5h30.66C42.93 40.38 36.99 36 30 36z"/>
    </g>
</svg>
